<?xml version="1.0" encoding="UTF-8"?>
<svg width="272px" height="54px" viewBox="0 0 272 54" version="1.1" xmlns="http://www.w3.org/2000/svg" xmlns:xlink="http://www.w3.org/1999/xlink">
    <!-- Generator: Sketch 41.2 (35397) - http://www.bohemiancoding.com/sketch -->
    <title>UWA-Online-Primary-reversed</title>
    <desc>Created with Sketch.</desc>
    <defs>
        <polygon id="path-1" points="55.71017 54 0.0330364372 54 0.0330364372 0.281571429 55.71017 0.281571429 111.387304 0.281571429 111.387304 54 55.71017 54"></polygon>
    </defs>
    <g id="Landing-Pages" stroke="none" stroke-width="1" fill="none" fill-rule="evenodd">
        <g id="Brand-Mobile" transform="translate(-52.000000, -2838.000000)">
            <g id="UWA-Online-Primary-reversed" transform="translate(52.000000, 2838.000000)">
                <path d="M138.400097,38.7620816 C142.946462,38.7620816 145.630672,35.2520816 145.630672,27.9091837 C145.630672,20.5662857 142.946462,17.0562857 138.400097,17.0562857 C133.855385,17.0562857 131.171174,20.5662857 131.171174,27.9091837 C131.171174,35.2520816 133.855385,38.7620816 138.400097,38.7620816 Z M138.400097,14.6207755 C144.735935,14.6207755 148.49383,19.276898 148.49383,27.9091837 C148.49383,36.5409184 144.735935,41.1975918 138.400097,41.1975918 C132.065911,41.1975918 128.307466,36.5409184 128.307466,27.9091837 C128.307466,19.276898 132.065911,14.6207755 138.400097,14.6207755 L138.400097,14.6207755 Z" id="Fill-1" fill="#FFFFFF"></path>
                <polyline id="Fill-2" fill="#FFFFFF" points="157.797992 40.8394286 157.797992 14.9789388 161.913231 14.9789388 173.188016 34.8933673 173.331174 34.8933673 173.331174 14.9789388 175.907466 14.9789388 175.907466 40.8394286 173.545911 40.8394286 160.446413 17.7726122 160.374283 17.7726122 160.374283 40.8394286 157.797992 40.8394286"></polyline>
                <polyline id="Fill-3" fill="#FFFFFF" points="187.215838 40.8394286 187.215838 14.9789388 190.079547 14.9789388 190.079547 38.4033673 202.319547 38.4033673 202.319547 40.8394286 187.215838 40.8394286"></polyline>
                <polygon id="Fill-4" fill="#FFFFFF" points="211.337943 40.8399796 214.201652 40.8399796 214.201652 14.9789388 211.337943 14.9789388"></polygon>
                <polyline id="Fill-5" fill="#FFFFFF" points="226.190575 40.8394286 226.190575 14.9789388 230.305814 14.9789388 241.580599 34.8933673 241.723757 34.8933673 241.723757 14.9789388 244.300049 14.9789388 244.300049 40.8394286 241.938494 40.8394286 228.838996 17.7726122 228.767417 17.7726122 228.767417 40.8394286 226.190575 40.8394286"></polyline>
                <polyline id="Fill-6" fill="#FFFFFF" points="271.105814 14.9789388 271.105814 17.414449 258.47213 17.414449 258.47213 26.082551 267.455287 26.082551 267.455287 28.5180612 258.47213 28.5180612 258.47213 38.4033673 271.822154 38.4033673 271.822154 40.8394286 255.608972 40.8394286 255.608972 14.9789388 271.105814 14.9789388"></polyline>
                <g id="Group-10">
                    <mask id="mask-2" fill="white">
                        <use xlink:href="#path-1"></use>
                    </mask>
                    <g id="Clip-8"></g>
                    <polygon id="Fill-7" fill="#FFFFFF" mask="url(#mask-2)" points="110.417684 54 111.387304 54 111.387304 0.281571429 110.417684 0.281571429"></polygon>
                    <path d="M33.2412632,42.7365918 L33.3271579,28.6536122 L28.8518219,18.3809388 L28.9933279,38.3576327 C26.9219433,41.7050816 21.3999028,43.4055306 17.2576842,43.4055306 C13.009749,43.4055306 7.16890688,40.7485102 7.16890688,32.3526122 L7.32803239,12.5836531 C7.32803239,10.9366531 7.85881781,9.396 9.87679352,9.396 L9.87679352,8.43887755 C8.33729555,8.43887755 6.74383806,8.65157143 4.93839676,8.65157143 C3.29208097,8.65157143 1.69917409,8.43887755 0,8.43887755 L0,9.396 C2.01797571,9.396 2.76184615,10.9366531 2.76184615,12.5836531 L2.92097166,32.5653061 C2.92097166,41.173898 8.33729555,46.169449 16.1961134,46.169449 C21.1868178,46.169449 25.2227692,43.6182245 28.8870607,41.121 L28.8870607,43.7245714 C28.8870607,44.3626531 28.6745263,44.8403878 28.3562753,45.1594286 L28.3562753,45.5319184 C29.6832389,45.5319184 31.010753,45.3186735 32.3382672,45.3186735 C33.6657814,45.3186735 34.9938462,45.5319184 36.3213603,45.5319184 L36.3213603,44.5747959 C34.515919,44.5747959 33.2412632,43.6182245 33.2412632,42.7365918" id="Fill-9" fill="#FFFFFF" mask="url(#mask-2)"></path>
                </g>
                <path d="M77.6482915,9.07695918 L77.6482915,8.12038776 C76.1616518,8.12038776 74.6750121,8.33308163 73.1883725,8.33308163 C71.7011822,8.33308163 70.2139919,8.12038776 68.7273522,8.12038776 L68.7273522,9.07695918 C70.6924696,9.44889796 71.0107206,10.0864286 71.0107206,11.2022449 C71.0107206,12.2122653 70.7987368,13.4344286 70.2139919,14.6565918 L59.3290364,38.8359184 L54.2309636,26.9322245 L60.6031417,13.7529184 C61.7181215,11.5212857 63.3644372,9.23620408 65.2227368,9.07695918 L65.2227368,8.12038776 C63.8423644,8.12038776 62.4614413,8.33308163 61.0816194,8.33308163 C59.7006964,8.33308163 58.3197733,8.12038776 56.9388502,8.12038776 L56.9388502,9.07695918 C58.585166,9.50179592 58.7977004,10.0335306 58.7977004,11.2022449 C58.7977004,11.7339796 58.6914332,12.3715102 58.3197733,13.1682857 L53.1159838,24.1688571 L48.3901215,12.2122653 C48.0713198,11.3085918 47.9121943,10.6710612 47.9121943,10.2991224 C47.9650526,9.66104082 48.549247,9.1827551 49.93017,9.07695918 L49.93017,8.12038776 C48.2833036,8.12038776 46.6375385,8.33308163 45.0446316,8.33308163 C43.3983158,8.33308163 41.752,8.12038776 40.1062348,8.12038776 L40.1062348,9.07695918 C42.1770688,9.396 42.654996,10.1927755 43.186332,11.3085918 L50.7263482,28.8982653 L45.6282753,39.2078571 L34.4773765,12.743449 C33.8403239,11.2022449 33.786915,10.7239592 33.786915,10.3520204 C33.786915,9.60814286 34.5830931,9.23620408 35.5923563,9.07695918 L35.5923563,8.12038776 C34.105166,8.12038776 32.5128097,8.33308163 30.9193522,8.33308163 C29.326996,8.33308163 27.7335385,8.12038776 26.1406316,8.12038776 L26.1406316,9.07695918 C27.3618785,9.60814286 28.1051984,10.0864286 29.3793036,13.0624898 L43.6637085,45.8504082 L44.72583,45.8504082 L51.8941862,31.3954898 L57.5235951,45.8504082 L58.585166,45.8504082 L68.2494251,24.2752041 C72.444502,14.9221837 75.0466721,9.92718367 77.6482915,9.07695918" id="Fill-11" fill="#FFFFFF"></path>
                <path d="M72.7721134,33.1703265 L79.7631741,16.0209184 L85.9663158,33.1703265 L72.7721134,33.1703265 Z M92.7470445,40.4823673 L81.340664,8.49783673 L80.4464777,8.49783673 L67.725247,40.4823673 C66.7793036,42.7972041 66.4109474,44.0595918 63.7834494,44.901 L63.7834494,45.8482041 C65.4126964,45.8482041 66.7793036,45.6377143 68.1464615,45.6377143 C69.4602105,45.6377143 70.8268178,45.8482041 72.1405668,45.8482041 L72.1405668,44.901 C70.8268178,44.4276735 69.8808745,43.7438571 69.8808745,42.7972041 C69.8808745,42.2709796 69.8808745,40.9556939 70.2486802,39.9561429 L71.9307854,35.3270204 L86.6490688,35.3270204 L88.6995304,40.851 C88.96217,41.5871633 89.2782186,42.2709796 89.2782186,43.1123878 C89.2782186,43.7438571 88.1213927,44.4276735 87.4380891,44.901 L87.4380891,45.8482041 C89.0150283,45.8482041 90.5919676,45.6377143 92.1689069,45.6377143 C93.7458462,45.6377143 95.3227854,45.8482041 96.8997247,45.8482041 L96.8997247,44.901 C94.3762915,43.9543469 93.6406802,43.0076939 92.7470445,40.4823673 L92.7470445,40.4823673 Z" id="Fill-12" fill="#FFFFFF"></path>
            </g>
        </g>
    </g>
</svg>