<?xml version="1.0" encoding="UTF-8"?>
<svg width="142px" height="142px" viewBox="0 0 142 142" version="1.1" xmlns="http://www.w3.org/2000/svg" xmlns:xlink="http://www.w3.org/1999/xlink">
    <!-- Generator: Sketch 41.2 (35397) - http://www.bohemiancoding.com/sketch -->
    <title>Logo Copy 2</title>
    <desc>Created with Sketch.</desc>
    <defs>
        <polygon id="path-1" points="0.142 27.5252321 94.19573 27.5252321 94.19573 0.128219409 0.142 0.128219409 0.142 27.5252321"></polygon>
    </defs>
    <g id="Landing-Pages" stroke="none" stroke-width="1" fill="none" fill-rule="evenodd">
        <g id="Brand-Desktop" transform="translate(-112.000000, -20.000000)">
            <g id="Logo-Copy-2" transform="translate(112.000000, 20.000000)">
                <rect id="Rectangle-2" fill="#A81D32" x="0" y="0" width="142" height="142"></rect>
                <g id="UWA-Online-Vert-reversed" transform="translate(22.767932, 34.751055)">
                    <path d="M33.0794093,33.247173 L33.1650886,17.7290295 L28.7121603,7.51401688 L28.8523629,30.234616 C26.7912658,33.5635274 21.2958059,35.2549451 17.174211,35.2549451 C12.9459662,35.2549451 7.1341519,32.6126667 7.1341519,24.2634262 L7.29292827,4.60631224 C7.29292827,2.96762025 7.82078481,1.43557806 9.82855696,1.43557806 L9.82855696,0.484118143 C8.29651477,0.484118143 6.71114768,0.695620253 4.91427848,0.695620253 C3.27618565,0.695620253 1.69081857,0.484118143 0,0.484118143 L0,1.43557806 C2.00777215,1.43557806 2.74832911,2.96762025 2.74832911,4.60631224 L2.90650633,24.4749283 C2.90650633,33.0356709 8.29651477,38.0026751 16.1172996,38.0026751 C21.0837046,38.0026751 25.1004473,35.4664473 28.7463122,32.982346 L28.7463122,35.5718987 C28.7463122,36.2064051 28.5354093,36.6815359 28.2184557,36.9984895 L28.2184557,37.3681688 C29.5389958,37.3681688 30.860135,37.1572658 32.1812743,37.1572658 C33.5018143,37.1572658 34.8235527,37.3681688 36.144692,37.3681688 L36.144692,36.417308 C34.3478228,36.417308 33.0794093,35.4664473 33.0794093,33.247173" id="Fill-1" fill="#FFFFFF"></path>
                    <path d="M77.2707679,1.11862447 L77.2707679,0.167164557 C75.7908523,0.167164557 74.3115359,0.378666667 72.8322194,0.378666667 C71.3523038,0.378666667 69.8723882,0.167164557 68.3924726,0.167164557 L68.3924726,1.11862447 C70.3481181,1.48890295 70.6650717,2.12221097 70.6650717,3.2318481 C70.6650717,4.23663291 70.4541688,5.45172152 69.8723882,6.66740928 L59.0402447,30.710346 L53.9671899,18.8734177 L60.3080591,5.76867511 C61.4182954,3.54940084 63.0563882,1.27740084 64.905384,1.11862447 L64.905384,0.167164557 C63.531519,0.167164557 62.157654,0.378666667 60.783789,0.378666667 C59.4093249,0.378666667 58.0360591,0.167164557 56.6615949,0.167164557 L56.6615949,1.11862447 C58.3002869,1.54102954 58.5111899,2.06948523 58.5111899,3.2318481 C58.5111899,3.76090295 58.4051392,4.39481013 58.0360591,5.18749367 L52.8575527,16.1256878 L48.1541772,4.23663291 C47.8378228,3.33789873 47.6784473,2.70399156 47.6784473,2.33431224 C47.7317722,1.69980591 48.3129536,1.22407595 49.6868186,1.11862447 L49.6868186,0.167164557 C48.0487257,0.167164557 46.4106329,0.378666667 44.8252658,0.378666667 C43.187173,0.378666667 41.5490802,0.167164557 39.9109873,0.167164557 L39.9109873,1.11862447 C41.9714852,1.43557806 42.4472152,2.2282616 42.9756709,3.33789873 L50.4795021,20.8290633 L45.4064473,31.0800253 L34.3100759,4.76448945 C33.6755696,3.2318481 33.6222447,2.7567173 33.6222447,2.38703797 C33.6222447,1.64708017 34.4149283,1.27740084 35.4191139,1.11862447 L35.4191139,0.167164557 C33.9391983,0.167164557 32.3544304,0.378666667 30.7690633,0.378666667 C29.1842954,0.378666667 27.5983291,0.167164557 26.012962,0.167164557 L26.012962,1.11862447 C27.2286498,1.64708017 27.9686076,2.12221097 29.2370211,5.08144304 L43.4508017,37.6857215 L44.5083122,37.6857215 L51.641865,23.3119662 L57.2433755,37.6857215 L58.3002869,37.6857215 L67.9167426,16.2317384 C72.0916624,6.93163713 74.6818143,1.96403376 77.2707679,1.11862447" id="Fill-2" fill="#FFFFFF"></path>
                    <path d="M72.4176034,25.076481 L79.3756034,8.02329958 L85.5475105,25.076481 L72.4176034,25.076481 Z M92.2958059,32.3472405 L80.9447932,0.542835443 L80.0550464,0.542835443 L67.3954768,32.3472405 C66.4542025,34.6491983 66.0887173,35.9050295 63.4734008,36.7414515 L63.4734008,37.6833249 C65.0947173,37.6833249 66.4542025,37.4742194 67.8148861,37.4742194 C69.1222447,37.4742194 70.4823291,37.6833249 71.7896878,37.6833249 L71.7896878,36.7414515 C70.4823291,36.2711139 69.5404557,35.5910717 69.5404557,34.6491983 C69.5404557,34.126135 69.5404557,32.8187764 69.9071392,31.8247764 L71.5805823,27.2214599 L86.2275527,27.2214599 L88.2676793,32.7139241 C88.5295105,33.446692 88.8434684,34.126135 88.8434684,34.9631561 C88.8434684,35.5910717 87.6924895,36.2711139 87.0124473,36.7414515 L87.0124473,37.6833249 C88.5816371,37.6833249 90.1514262,37.4742194 91.7200169,37.4742194 C93.2892068,37.4742194 94.8589958,37.6833249 96.4281857,37.6833249 L96.4281857,36.7414515 C93.9171224,35.8001772 93.1849536,34.8583038 92.2958059,32.3472405 L92.2958059,32.3472405 Z" id="Fill-3" fill="#FFFFFF"></path>
                    <g id="Group-7" transform="translate(2.396624, 44.936709)">
                        <mask id="mask-2" fill="white">
                            <use xlink:href="#path-1"></use>
                        </mask>
                        <g id="Clip-5"></g>
                        <polygon id="Fill-4" fill="#FFFFFF" mask="url(#mask-2)" points="0.349907173 2.39422785 94.19573 2.39422785 94.19573 0.128219409 0.349907173 0.128219409"></polygon>
                        <path d="M6.89988186,25.9314768 C9.94239662,25.9314768 11.739865,23.583384 11.739865,18.670903 C11.739865,13.7590211 9.94239662,11.4103291 6.89988186,11.4103291 C3.85616878,11.4103291 2.05870042,13.7590211 2.05870042,18.670903 C2.05870042,23.583384 3.85616878,25.9314768 6.89988186,25.9314768 Z M6.89988186,9.78122363 C11.1407089,9.78122363 13.6565654,12.8962363 13.6565654,18.670903 C13.6565654,24.4455696 11.1407089,27.5611814 6.89988186,27.5611814 C2.65785654,27.5611814 0.142,24.4455696 0.142,18.670903 C0.142,12.8962363 2.65785654,9.78122363 6.89988186,9.78122363 L6.89988186,9.78122363 Z" id="Fill-6" fill="#FFFFFF" mask="url(#mask-2)"></path>
                    </g>
                    <polyline id="Fill-8" fill="#FFFFFF" points="21.9279156 72.2582278 21.9279156 54.9575949 24.6828354 54.9575949 32.2316034 68.2804304 32.3268692 68.2804304 32.3268692 54.9575949 34.0518397 54.9575949 34.0518397 72.2582278 32.4700675 72.2582278 23.7008186 56.8263629 23.6522869 56.8263629 23.6522869 72.2582278 21.9279156 72.2582278"></polyline>
                    <polyline id="Fill-9" fill="#FFFFFF" points="41.2668776 72.2582278 41.2668776 54.9575949 43.1835781 54.9575949 43.1835781 70.6285232 51.3788354 70.6285232 51.3788354 72.2582278 41.2668776 72.2582278"></polyline>
                    <polygon id="Fill-10" fill="#FFFFFF" points="57.0606329 72.2582278 58.9773333 72.2582278 58.9773333 54.9575949 57.0606329 54.9575949"></polygon>
                    <polyline id="Fill-11" fill="#FFFFFF" points="66.6465316 72.2582278 66.6465316 54.9575949 69.4026498 54.9575949 76.9514177 68.2804304 77.0466835 68.2804304 77.0466835 54.9575949 78.771654 54.9575949 78.771654 72.2582278 77.1898819 72.2582278 68.4194346 56.8263629 68.3721013 56.8263629 68.3721013 72.2582278 66.6465316 72.2582278"></polyline>
                    <polyline id="Fill-12" fill="#FFFFFF" points="96.3634768 54.9575949 96.3634768 56.5867004 87.9045907 56.5867004 87.9045907 62.3859325 93.9189198 62.3859325 93.9189198 64.015038 87.9045907 64.015038 87.9045907 70.6285232 96.8434008 70.6285232 96.8434008 72.2582278 85.9884895 72.2582278 85.9884895 54.9575949 96.3634768 54.9575949"></polyline>
                </g>
            </g>
        </g>
    </g>
</svg>